<?xml version="1.0" standalone="no"?>
<!DOCTYPE svg PUBLIC "-//W3C//DTD SVG 20010904//EN"
 "http://www.w3.org/TR/2001/REC-SVG-20010904/DTD/svg10.dtd">
<svg version="1.0" xmlns="http://www.w3.org/2000/svg"
 width="200.000000pt" height="200.000000pt" viewBox="0 0 200.000000 200.000000"
 preserveAspectRatio="xMidYMid meet">

<g transform="translate(0.000000,200.000000) scale(0.100000,-0.100000)"
fill="#000000" stroke="none">
<path d="M810 1734 c-82 -21 -228 -97 -291 -151 -213 -181 -309 -455 -255
-723 59 -289 279 -518 564 -587 88 -21 256 -21 344 0 282 68 504 296 562 579
75 360 -118 718 -459 853 -102 40 -140 43 -171 14 -55 -51 -79 -133 -63 -211
16 -71 65 -118 202 -191 182 -97 247 -159 289 -274 30 -83 30 -215 0 -304 -88
-256 -340 -392 -617 -334 -271 57 -465 278 -467 531 -2 211 75 335 287 459
136 80 174 111 198 164 20 46 28 141 15 174 -9 21 -59 22 -138 1z"/>
</g>
</svg>
